0
SECTION
2
HEADER
9
$INSUNITS
70
4
9
$ACADVER
1
AC1014
9
$HANDSEED
5
FFFF
0
ENDSEC
0
SECTION
2
TABLES
0
TABLE
2
VPORT
5
8
100
AcDbSymbolTable
0
ENDTAB
0
TABLE
2
LTYPE
5
5
100
AcDbSymbolTable
0
LTYPE
5
14
100
AcDbSymbolTableRecord
100
AcDbLinetypeTableRecord
2
BYBLOCK
70
0
0
LTYPE
5
15
100
AcDbSymbolTableRecord
100
AcDbLinetypeTableRecord
2
BYLAYER
70
0
0
LTYPE
5
16
100
AcDbSymbolTableRecord
100
AcDbLinetypeTableRecord
2
DASHED
70
0
3
Dashed __ __ __ __ __ __ __ __ __ __ __ __ __ _
72
65
73
2
40
0.75
49
0.5
74
0
49
-0.25
74
0
0
ENDTAB
0
TABLE
2
LAYER
5
2
100
AcDbSymbolTable
70
2
0
LAYER
5
50
100
AcDbSymbolTableRecord
100
AcDbLayerTableRecord
2
0
70
0
62
7
6
CONTINUOUS
0
ENDTAB
0
TABLE
2
STYLE
5
3
100
AcDbSymbolTable
70
1
0
STYLE
5
11
100
AcDbSymbolTableRecord
100
AcDbTextStyleTableRecord
2
STANDARD
70
0
0
ENDTAB
0
TABLE
2
VIEW
5
6
100
AcDbSymbolTable
70
0
0
ENDTAB
0
TABLE
2
UCS
5
7
100
AcDbSymbolTable
70
0
0
ENDTAB
0
TABLE
2
APPID
5
9
100
AcDbSymbolTable
70
2
0
APPID
5
12
100
AcDbSymbolTableRecord
100
AcDbRegAppTableRecord
2
ACAD
70
0
0
ENDTAB
0
TABLE
2
DIMSTYLE
5
A
100
AcDbSymbolTable
70
1
0
ENDTAB
0
TABLE
2
BLOCK_RECORD
5
1
100
AcDbSymbolTable
70
1
0
BLOCK_RECORD
5
1F
100
AcDbSymbolTableRecord
100
AcDbBlockTableRecord
2
*MODEL_SPACE
0
BLOCK_RECORD
5
1B
100
AcDbSymbolTableRecord
100
AcDbBlockTableRecord
2
*PAPER_SPACE
0
ENDTAB
0
ENDSEC
0
SECTION
2
BLOCKS
0
BLOCK
5
20
100
AcDbEntity
100
AcDbBlockBegin
2
*MODEL_SPACE
0
ENDBLK
5
21
100
AcDbEntity
100
AcDbBlockEnd
0
BLOCK
5
1C
100
AcDbEntity
100
AcDbBlockBegin
2
*PAPER_SPACE
0
ENDBLK
5
1D
100
AcDbEntity
100
AcDbBlockEnd
0
ENDSEC
0
SECTION
2
ENTITIES
0
ARC
5
100
100
AcDbEntity
8
0
100
AcDbCircle
10
-72.70324611666129
20
45.060559999999484
30
0
40
3.4999999999999876
210
0
220
0
230
1
100
AcDbArc
50
-90.000000000025608
51
5.4604879884735498
0
LINE
5
101
100
AcDbEntity
8
0
100
AcDbLine
10
-74.325637999998889
20
41.560560000000208
30
0
11
-72.703246116662854
21
41.560559999999498
31
0
0
ARC
5
102
100
AcDbEntity
8
0
100
AcDbCircle
10
-74.325637999999984
20
39.060560000000223
30
0
40
2.4999999999999822
210
0
220
-0
230
1
100
AcDbArc
50
89.999999999974918
51
180
0
LINE
5
103
100
AcDbEntity
8
0
100
AcDbLine
10
-76.825637999999984
20
38.393060999992983
30
0
11
-76.825637999999969
21
39.060560000000351
31
0
0
ARC
5
104
100
AcDbEntity
8
0
100
AcDbCircle
10
-80.325637999999984
20
38.393060999993168
30
0
40
3.4999999999999964
210
0
220
0
230
1
100
AcDbArc
50
269.99999999999909
51
360
0
LINE
5
105
100
AcDbEntity
8
0
100
AcDbLine
10
-92.875638000000066
20
34.893060999993352
30
0
11
-80.325638000000041
21
34.893060999993175
31
0
0
ARC
5
106
100
AcDbEntity
8
0
100
AcDbCircle
10
-92.875638000000066
20
38.393060999993324
30
0
40
3.4999999999999609
210
0
220
0
230
1
100
AcDbArc
50
180
51
270
0
LINE
5
107
100
AcDbEntity
8
0
100
AcDbLine
10
-96.375638000000038
20
39.060001015575388
30
0
11
-96.375638000000023
21
38.393060999993203
31
0
0
ARC
5
108
100
AcDbEntity
8
0
100
AcDbCircle
10
-98.875638000000066
20
39.060001015575253
30
0
40
2.5000000000000178
210
0
220
-0
230
1
100
AcDbArc
50
0
51
90.00000356970753
0
LINE
5
109
100
AcDbEntity
8
0
100
AcDbLine
10
-100.49802956985992
20
41.560000914495127
30
0
11
-98.87563815575794
21
41.560001015575267
31
0
0
SPLINE
5
110
100
AcDbEntity
8
0
100
AcDbSpline
70
0
71
3
72
11
73
7
74
0
42
0.000000001
43
0.0000000001
44
0.0000000001
40
0
40
0
40
0
40
0
40
0.41192446854133208
40
0.41192446854133208
40
0.41192446854133208
40
0.66816657916424027
40
0.66816657916424027
40
0.66816657916424027
40
0.66816657916424027
10
-100.49802956985992
20
41.560000914495127
30
0
10
-101.69947593643899
20
41.560000839641219
30
0
10
-102.87284227936061
20
42.224295720688048
30
0
10
-103.49226191681984
20
43.247661553815135
30
0
10
-103.87757866147906
20
43.884257437396499
30
0
10
-104.05326641551844
20
44.649076763555293
30
0
10
-103.98214702736404
20
45.393058059465645
30
0
0
SPLINE
5
111
100
AcDbEntity
8
0
100
AcDbSpline
70
0
71
3
72
14
73
10
74
0
42
0.000000001
43
0.0000000001
44
0.0000000001
40
0
40
0
40
0
40
0
40
0.53570208978719347
40
0.53570208978719347
40
0.53570208978719347
40
1.072815197856914
40
1.072815197856914
40
1.072815197856914
40
1.1464250869682746
40
1.1464250869682746
40
1.1464250869682746
40
1.1464250869682746
10
-103.98214702736402
20
45.393058059465652
30
0
10
-103.79916991478916
20
47.307185175405486
30
0
10
-104.44092792451841
20
49.273133836136438
30
0
10
-105.71487671870985
20
50.708985969232572
30
0
10
-106.99218104403302
20
52.148620080501701
30
0
10
-108.88343945627243
20
53.021472798908967
30
0
10
-110.80645556721311
20
53.058692756948872
30
0
10
-111.06999968959437
20
53.063793650862799
30
0
10
-111.33396103901759
20
53.053973685534316
30
0
10
-111.59707162402748
20
53.029164327764427
30
0
0
SPLINE
5
112
100
AcDbEntity
8
0
100
AcDbSpline
70
0
71
3
72
11
73
7
74
0
42
0.000000001
43
0.0000000001
44
0.0000000001
40
0
40
0
40
0
40
0
40
0.41191142776833251
40
0.41191142776833251
40
0.41191142776833251
40
0.66764898696447705
40
0.66764898696447705
40
0.66764898696447705
40
0.66764898696447705
10
-111.59707162402685
20
53.029164327764519
30
0
10
-112.79317440060838
20
52.916380793372412
30
0
10
-114.02368218884456
20
53.467549999404362
30
0
10
-114.73644446839658
20
54.428194341041241
30
0
10
-115.17896699477387
20
55.024615859416734
30
0
10
-115.42563799052344
20
55.767806718028879
30
0
10
-115.4256379908395
20
56.513707932350854
30
0
0
ARC
5
113
100
AcDbEntity
8
0
100
AcDbCircle
10
-111.92563799091231
20
56.685559999999988
30
0
40
3.5000000000000142
210
0
220
0
230
1
100
AcDbArc
50
90.000000000000242
51
180
0
LINE
5
114
100
AcDbEntity
8
0
100
AcDbLine
10
-115.42563799091232
20
56.685559998517078
30
0
11
-115.4256379908395
21
56.513707932350854
31
0
0
LINE
5
115
100
AcDbEntity
8
0
100
AcDbLine
10
-99.400638000000015
20
60.185559999999995
30
0
11
-111.92563799091232
21
60.185560000000002
31
0
0
ARC
5
116
100
AcDbEntity
8
0
100
AcDbCircle
10
-99.400638000000015
20
63.185559999999974
30
0
40
2.9999999999999805
210
-0
220
0
230
1
100
AcDbArc
50
-90
51
0
0
LINE
5
117
100
AcDbEntity
8
0
100
AcDbLine
10
-96.400637999999987
20
89.043061000000009
30
0
11
-96.400638000000043
21
63.185559999999995
31
0
0
ARC
5
118
100
AcDbEntity
8
0
100
AcDbCircle
10
-92.900637999999987
20
89.04306099999998
30
0
40
3.4999999999999964
210
0
220
-0
230
1
100
AcDbArc
50
89.999999999984894
51
180
0
LINE
5
119
100
AcDbEntity
8
0
100
AcDbLine
10
-80.32563799999906
20
92.543060999996655
30
0
11
-92.900637999999063
21
92.543060999999966
31
0
0
ARC
5
120
100
AcDbEntity
8
0
100
AcDbCircle
10
-80.325637999999998
20
89.043060999996655
30
0
40
3.5000000000000053
210
0
220
-0
230
1
100
AcDbArc
50
0
51
89.999999999984638
0
LINE
5
121
100
AcDbEntity
8
0
100
AcDbLine
10
-76.825637999999998
20
82.660561000000001
30
0
11
-76.825637999999998
21
89.043060999996655
31
0
0
ARC
5
122
100
AcDbEntity
8
0
100
AcDbCircle
10
-74.325637999999998
20
82.660561000000001
30
0
40
2.4999999999999911
210
0
220
0
230
1
100
AcDbArc
50
180
51
270
0
LINE
5
123
100
AcDbEntity
8
0
100
AcDbLine
10
-60.775638000000036
20
80.160561000000001
30
0
11
-74.325637999999998
21
80.160561000000001
31
0
0
SPLINE
5
124
100
AcDbEntity
8
0
100
AcDbSpline
70
0
71
3
72
14
73
10
74
0
42
0.000000001
43
0.0000000001
44
0.0000000001
40
0
40
0
40
0
40
0
40
0.39581540902113466
40
0.39581540902113466
40
0.39581540902113466
40
0.79574210286152447
40
0.79574210286152447
40
0.79574210286152447
40
0.83511801924417517
40
0.83511801924417517
40
0.83511801924417517
40
0.83511801924417517
10
-59.954198138155192
20
80.299367116945874
30
0
10
-58.863835061789615
20
80.678695430998587
30
0
10
-57.595140255965759
20
80.47343091649941
30
0
10
-56.681519413524136
20
79.776554307396054
30
0
10
-55.758408906419447
20
79.072439328692639
30
0
10
-55.223913569839347
20
77.880735897076704
30
0
10
-55.314885918708242
20
76.720180519895138
30
0
10
-55.323842859211005
20
76.605914750209919
30
0
10
-55.338416216391479
20
76.492043474764245
30
0
10
-55.358586970402413
20
76.378982245739337
30
0
0
ARC
5
125
100
AcDbEntity
8
0
100
AcDbCircle
10
-60.775638000000171
20
82.660561000000513
30
0
40
2.5000000000005151
210
-0
220
0
230
1
100
AcDbArc
50
270.00000000000313
51
289.18236391136935
0
SPLINE
5
126
100
AcDbEntity
8
0
100
AcDbSpline
70
0
71
3
72
8
73
4
74
0
42
0.000000001
43
0.0000000001
44
0.0000000001
40
0
40
0
40
0
40
0
40
0.54671769481128507
40
0.54671769481128507
40
0.54671769481128507
40
0.54671769481128507
10
-55.358586970402456
20
76.378982245739195
30
0
10
-55.703248847252596
20
74.447081466344514
30
0
10
-55.194232802072626
20
72.389177467947562
30
0
10
-53.987682392248232
20
70.841279771613415
30
0
0
SPLINE
5
127
100
AcDbEntity
8
0
100
AcDbSpline
70
0
71
3
72
11
73
7
74
0
42
0.000000001
43
0.0000000001
44
0.0000000001
40
0
40
0
40
0
40
0
40
0.41104547837741773
40
0.41104547837741773
40
0.41104547837741773
40
0.79609686862100848
40
0.79609686862100848
40
0.79609686862100848
40
0.79609686862100848
10
-53.987682392242739
20
70.841279771606366
30
0
10
-53.250639039990268
20
69.895718195598079
30
0
10
-53.052266991702282
20
68.565551507401238
30
0
10
-53.475249505620937
20
67.449331227955298
30
0
10
-53.87148304570519
20
66.403699556940751
30
0
10
-54.800460316777652
20
65.572224695675388
30
0
10
-55.889180777026375
20
65.296604946529499
30
0
0
ARC
5
128
100
AcDbEntity
8
0
100
AcDbCircle
10
-55.275638000000022
20
62.87306100000022
30
0
40
2.4999999999999933
210
0
220
0
230
1
100
AcDbArc
50
104.20648501283607
51
180
0
LINE
5
129
100
AcDbEntity
8
0
100
AcDbLine
10
-57.77563799999978
20
56.514267648350511
30
0
11
-57.775638000000015
21
62.873061000000121
31
0
0
ARC
5
130
100
AcDbEntity
8
0
100
AcDbCircle
10
-61.275637999999795
20
56.514267648350376
30
0
40
3.500000000000016
210
0
220
0
230
1
100
AcDbArc
50
-95.386638745933922
51
0
0
SPLINE
5
131
100
AcDbEntity
8
0
100
AcDbSpline
70
0
71
3
72
14
73
10
74
0
42
0.000000001
43
0.0000000001
44
0.0000000001
40
0
40
0
40
0
40
0
40
0.53489542718529359
40
0.53489542718529359
40
0.53489542718529359
40
1.0750839408795354
40
1.0750839408795354
40
1.0750839408795354
40
1.1463676284975846
40
1.1463676284975846
40
1.1463676284975846
40
1.1463676284975846
10
-61.60420451739266
20
53.029724056479495
30
0
10
-63.516226619654567
20
53.210013505229696
30
0
10
-65.478419083566109
20
52.563845230982757
30
0
10
-66.909054616229966
20
51.288298936181469
30
0
10
-68.353847079860714
20
50.000130404319606
30
0
10
-69.223053091517656
20
48.093055873027282
30
0
10
-69.250241302987718
20
46.159081024817652
30
0
10
-69.253829080076997
20
45.903872231135367
30
0
10
-69.243478180581889
20
45.64833539329652
30
0
10
-69.219128912569829
20
45.393617514783095
30
0
0
ENDSEC
0
SECTION
2
OBJECTS
0
DICTIONARY
5
C
100
AcDbDictionary
3
ACAD_GROUP
350
D
3
ACAD_MLINESTYLE
350
17
0
DICTIONARY
5
D
100
AcDbDictionary
0
DICTIONARY
5
1A
330
C
100
AcDbDictionary
0
DICTIONARY
5
17
100
AcDbDictionary
0
ENDSEC
0
EOF
